<?xml version="1.0" encoding="UTF-8" standalone="no"?>
<!DOCTYPE svg PUBLIC "-//W3C//DTD SVG 1.1//EN"
 "http://www.w3.org/Graphics/SVG/1.1/DTD/svg11.dtd">
<!-- Generated by graphviz version 2.47.0 (20210316.0004)
 -->
<!-- Title: dependencies Pages: 1 -->
<svg width="4443pt" height="284pt"
 viewBox="0.00 0.00 4443.00 284.00" xmlns="http://www.w3.org/2000/svg" xmlns:xlink="http://www.w3.org/1999/xlink">
<g id="graph0" class="graph" transform="scale(1 1) rotate(0) translate(4 280)">
<title>dependencies</title>
<polygon fill="white" stroke="transparent" points="-4,4 -4,-280 4439,-280 4439,4 -4,4"/>
<text text-anchor="start" x="2196.51" y="-42.4" font-family="sans-serif" font-weight="bold" font-size="14.00">Legend</text>
<polygon fill="#ffffb3" stroke="transparent" points="1983.5,-10 1983.5,-30 2003.5,-30 2003.5,-10 1983.5,-10"/>
<text text-anchor="start" x="2007.13" y="-15.4" font-family="sans-serif" font-size="14.00"> &#160;Declarations</text>
<polygon fill="#8dd3c7" stroke="transparent" points="2096.5,-10 2096.5,-30 2116.5,-30 2116.5,-10 2096.5,-10"/>
<text text-anchor="start" x="2120.23" y="-15.4" font-family="sans-serif" font-size="14.00"> &#160;Module</text>
<polygon fill="#80b1d3" stroke="transparent" points="2182.5,-10 2182.5,-30 2202.5,-30 2202.5,-10 2182.5,-10"/>
<text text-anchor="start" x="2206.28" y="-15.4" font-family="sans-serif" font-size="14.00"> &#160;Bootstrap</text>
<polygon fill="#fdb462" stroke="transparent" points="2279.5,-10 2279.5,-30 2299.5,-30 2299.5,-10 2279.5,-10"/>
<text text-anchor="start" x="2303.17" y="-15.4" font-family="sans-serif" font-size="14.00"> &#160;Providers</text>
<polygon fill="#fb8072" stroke="transparent" points="2375.5,-10 2375.5,-30 2395.5,-30 2395.5,-10 2375.5,-10"/>
<text text-anchor="start" x="2399.23" y="-15.4" font-family="sans-serif" font-size="14.00"> &#160;Exports</text>
<g id="clust7" class="cluster">
<title>cluster_AppModule</title>
<polygon fill="none" stroke="black" stroke-dasharray="1,5" points="8,-70 8,-268 4427,-268 4427,-70 8,-70"/>
</g>
<g id="clust8" class="cluster">
<title>cluster_AppModule_declarations</title>
<polygon fill="none" stroke="black" points="624,-78 624,-130 4419,-130 4419,-78 624,-78"/>
</g>
<g id="clust31" class="cluster">
<title>cluster_AppModule_imports</title>
<polygon fill="none" stroke="black" points="322,-78 322,-130 616,-130 616,-78 322,-78"/>
</g>
<g id="clust33" class="cluster">
<title>cluster_AppModule_bootstrap</title>
<polygon fill="none" stroke="black" points="2069,-208 2069,-260 2193,-260 2193,-208 2069,-208"/>
</g>
<g id="clust34" class="cluster">
<title>cluster_AppModule_providers</title>
<polygon fill="none" stroke="black" points="16,-78 16,-130 314,-130 314,-78 16,-78"/>
</g>
<!-- AffichEtablissementComponent -->
<g id="node1" class="node">
<title>AffichEtablissementComponent</title>
<polygon fill="#ffffb3" stroke="black" points="4411.4,-122 4214.6,-122 4214.6,-86 4411.4,-86 4411.4,-122"/>
<text text-anchor="middle" x="4313" y="-99.8" font-family="Times,serif" font-size="14.00">AffichEtablissementComponent</text>
</g>
<!-- AppModule -->
<g id="node23" class="node">
<title>AppModule</title>
<polygon fill="#8dd3c7" stroke="black" points="2172.66,-187 2169.66,-191 2148.66,-191 2145.66,-187 2089.34,-187 2089.34,-151 2172.66,-151 2172.66,-187"/>
<text text-anchor="middle" x="2131" y="-164.8" font-family="Times,serif" font-size="14.00">AppModule</text>
</g>
<!-- AffichEtablissementComponent&#45;&gt;AppModule -->
<g id="edge1" class="edge">
<title>AffichEtablissementComponent&#45;&gt;AppModule</title>
<path fill="none" stroke="black" d="M4313,-122.38C4313,-146.28 4313,-185 4313,-185 4313,-185 2183.12,-185 2183.12,-185"/>
<polygon fill="black" stroke="black" points="2183.12,-181.5 2173.12,-185 2183.12,-188.5 2183.12,-181.5"/>
</g>
<!-- AffichMontantAlimenteComponent -->
<g id="node2" class="node">
<title>AffichMontantAlimenteComponent</title>
<polygon fill="#ffffb3" stroke="black" points="4196.9,-122 3979.1,-122 3979.1,-86 4196.9,-86 4196.9,-122"/>
<text text-anchor="middle" x="4088" y="-99.8" font-family="Times,serif" font-size="14.00">AffichMontantAlimenteComponent</text>
</g>
<!-- AffichMontantAlimenteComponent&#45;&gt;AppModule -->
<g id="edge2" class="edge">
<title>AffichMontantAlimenteComponent&#45;&gt;AppModule</title>
<path fill="none" stroke="black" d="M4088,-122.09C4088,-145.13 4088,-182 4088,-182 4088,-182 2182.78,-182 2182.78,-182"/>
<polygon fill="black" stroke="black" points="2182.78,-178.5 2172.78,-182 2182.78,-185.5 2182.78,-178.5"/>
</g>
<!-- AffichMontantCollecteComponent -->
<g id="node3" class="node">
<title>AffichMontantCollecteComponent</title>
<polygon fill="#ffffb3" stroke="black" points="3960.96,-122 3749.04,-122 3749.04,-86 3960.96,-86 3960.96,-122"/>
<text text-anchor="middle" x="3855" y="-99.8" font-family="Times,serif" font-size="14.00">AffichMontantCollecteComponent</text>
</g>
<!-- AffichMontantCollecteComponent&#45;&gt;AppModule -->
<g id="edge3" class="edge">
<title>AffichMontantCollecteComponent&#45;&gt;AppModule</title>
<path fill="none" stroke="black" d="M3855,-122.16C3855,-144.35 3855,-179 3855,-179 3855,-179 2182.76,-179 2182.76,-179"/>
<polygon fill="black" stroke="black" points="2182.76,-175.5 2172.76,-179 2182.76,-182.5 2182.76,-175.5"/>
</g>
<!-- AffichPassagesComponent -->
<g id="node4" class="node">
<title>AffichPassagesComponent</title>
<polygon fill="#ffffb3" stroke="black" points="3730.63,-122 3563.37,-122 3563.37,-86 3730.63,-86 3730.63,-122"/>
<text text-anchor="middle" x="3647" y="-99.8" font-family="Times,serif" font-size="14.00">AffichPassagesComponent</text>
</g>
<!-- AffichPassagesComponent&#45;&gt;AppModule -->
<g id="edge4" class="edge">
<title>AffichPassagesComponent&#45;&gt;AppModule</title>
<path fill="none" stroke="black" d="M3647,-122.17C3647,-143.5 3647,-176 3647,-176 3647,-176 2182.73,-176 2182.73,-176"/>
<polygon fill="black" stroke="black" points="2182.73,-172.5 2172.73,-176 2182.73,-179.5 2182.73,-172.5"/>
</g>
<!-- AppComponent -->
<g id="node5" class="node">
<title>AppComponent</title>
<polygon fill="#ffffb3" stroke="black" points="3544.94,-122 3439.06,-122 3439.06,-86 3544.94,-86 3544.94,-122"/>
<text text-anchor="middle" x="3492" y="-99.8" font-family="Times,serif" font-size="14.00">AppComponent</text>
</g>
<!-- AppComponent&#45;&gt;AppModule -->
<g id="edge5" class="edge">
<title>AppComponent&#45;&gt;AppModule</title>
<path fill="none" stroke="black" d="M3492,-122.03C3492,-142.77 3492,-174 3492,-174 3492,-174 2182.85,-174 2182.85,-174"/>
<polygon fill="black" stroke="black" points="2182.85,-170.5 2172.85,-174 2182.85,-177.5 2182.85,-170.5"/>
</g>
<!-- CommandesClientComponent -->
<g id="node6" class="node">
<title>CommandesClientComponent</title>
<polygon fill="#ffffb3" stroke="black" points="3421.55,-122 3236.45,-122 3236.45,-86 3421.55,-86 3421.55,-122"/>
<text text-anchor="middle" x="3329" y="-99.8" font-family="Times,serif" font-size="14.00">CommandesClientComponent</text>
</g>
<!-- CommandesClientComponent&#45;&gt;AppModule -->
<g id="edge6" class="edge">
<title>CommandesClientComponent&#45;&gt;AppModule</title>
<path fill="none" stroke="black" d="M3329,-122.31C3329,-142.15 3329,-171 3329,-171 3329,-171 2182.94,-171 2182.94,-171"/>
<polygon fill="black" stroke="black" points="2182.94,-167.5 2172.94,-171 2182.93,-174.5 2182.94,-167.5"/>
</g>
<!-- ConsultationComponent -->
<g id="node7" class="node">
<title>ConsultationComponent</title>
<polygon fill="#ffffb3" stroke="black" points="3218.39,-122 3065.61,-122 3065.61,-86 3218.39,-86 3218.39,-122"/>
<text text-anchor="middle" x="3142" y="-99.8" font-family="Times,serif" font-size="14.00">ConsultationComponent</text>
</g>
<!-- ConsultationComponent&#45;&gt;AppModule -->
<g id="edge7" class="edge">
<title>ConsultationComponent&#45;&gt;AppModule</title>
<path fill="none" stroke="black" d="M3142,-122.17C3142,-141.09 3142,-168 3142,-168 3142,-168 2182.84,-168 2182.84,-168"/>
<polygon fill="black" stroke="black" points="2182.84,-164.5 2172.84,-168 2182.84,-171.5 2182.84,-164.5"/>
</g>
<!-- DesactiverCompteComponent -->
<g id="node8" class="node">
<title>DesactiverCompteComponent</title>
<polygon fill="#ffffb3" stroke="black" points="3047.52,-122 2862.48,-122 2862.48,-86 3047.52,-86 3047.52,-122"/>
<text text-anchor="middle" x="2955" y="-99.8" font-family="Times,serif" font-size="14.00">DesactiverCompteComponent</text>
</g>
<!-- DesactiverCompteComponent&#45;&gt;AppModule -->
<g id="edge8" class="edge">
<title>DesactiverCompteComponent&#45;&gt;AppModule</title>
<path fill="none" stroke="black" d="M2955,-122.3C2955,-140.27 2955,-165 2955,-165 2955,-165 2182.71,-165 2182.71,-165"/>
<polygon fill="black" stroke="black" points="2182.71,-161.5 2172.71,-165 2182.71,-168.5 2182.71,-161.5"/>
</g>
<!-- FooterComponent -->
<g id="node9" class="node">
<title>FooterComponent</title>
<polygon fill="#ffffb3" stroke="black" points="2843.88,-122 2726.12,-122 2726.12,-86 2843.88,-86 2843.88,-122"/>
<text text-anchor="middle" x="2785" y="-99.8" font-family="Times,serif" font-size="14.00">FooterComponent</text>
</g>
<!-- FooterComponent&#45;&gt;AppModule -->
<g id="edge9" class="edge">
<title>FooterComponent&#45;&gt;AppModule</title>
<path fill="none" stroke="black" d="M2785,-122.02C2785,-139.37 2785,-163 2785,-163 2785,-163 2182.91,-163 2182.91,-163"/>
<polygon fill="black" stroke="black" points="2182.91,-159.5 2172.91,-163 2182.91,-166.5 2182.91,-159.5"/>
</g>
<!-- FormsComponent -->
<g id="node10" class="node">
<title>FormsComponent</title>
<polygon fill="#ffffb3" stroke="black" points="2708.61,-122 2591.39,-122 2591.39,-86 2708.61,-86 2708.61,-122"/>
<text text-anchor="middle" x="2650" y="-99.8" font-family="Times,serif" font-size="14.00">FormsComponent</text>
</g>
<!-- FormsComponent&#45;&gt;AppModule -->
<g id="edge10" class="edge">
<title>FormsComponent&#45;&gt;AppModule</title>
<path fill="none" stroke="black" d="M2650,-122.03C2650,-138.4 2650,-160 2650,-160 2650,-160 2183.03,-160 2183.03,-160"/>
<polygon fill="black" stroke="black" points="2183.03,-156.5 2173.03,-160 2183.03,-163.5 2183.03,-156.5"/>
</g>
<!-- GestionClientComponent -->
<g id="node11" class="node">
<title>GestionClientComponent</title>
<polygon fill="#ffffb3" stroke="black" points="2573.6,-122 2414.4,-122 2414.4,-86 2573.6,-86 2573.6,-122"/>
<text text-anchor="middle" x="2494" y="-99.8" font-family="Times,serif" font-size="14.00">GestionClientComponent</text>
</g>
<!-- GestionClientComponent&#45;&gt;AppModule -->
<g id="edge11" class="edge">
<title>GestionClientComponent&#45;&gt;AppModule</title>
<path fill="none" stroke="black" d="M2494,-122.24C2494,-137.57 2494,-157 2494,-157 2494,-157 2183,-157 2183,-157"/>
<polygon fill="black" stroke="black" points="2183,-153.5 2173,-157 2183,-160.5 2183,-153.5"/>
</g>
<!-- HomeComponent -->
<g id="node12" class="node">
<title>HomeComponent</title>
<polygon fill="#ffffb3" stroke="black" points="2396.55,-122 2281.45,-122 2281.45,-86 2396.55,-86 2396.55,-122"/>
<text text-anchor="middle" x="2339" y="-99.8" font-family="Times,serif" font-size="14.00">HomeComponent</text>
</g>
<!-- HomeComponent&#45;&gt;AppModule -->
<g id="edge12" class="edge">
<title>HomeComponent&#45;&gt;AppModule</title>
<path fill="none" stroke="black" d="M2339,-122.05C2339,-136.37 2339,-154 2339,-154 2339,-154 2183.09,-154 2183.09,-154"/>
<polygon fill="black" stroke="black" points="2183.09,-150.5 2173.09,-154 2183.09,-157.5 2183.09,-150.5"/>
</g>
<!-- LoginComponent -->
<g id="node13" class="node">
<title>LoginComponent</title>
<polygon fill="#ffffb3" stroke="black" points="2263.28,-122 2148.72,-122 2148.72,-86 2263.28,-86 2263.28,-122"/>
<text text-anchor="middle" x="2206" y="-99.8" font-family="Times,serif" font-size="14.00">LoginComponent</text>
</g>
<!-- LoginComponent&#45;&gt;AppModule -->
<g id="edge13" class="edge">
<title>LoginComponent&#45;&gt;AppModule</title>
<path fill="none" stroke="black" d="M2160.72,-122.11C2160.72,-122.11 2160.72,-140.99 2160.72,-140.99"/>
<polygon fill="black" stroke="black" points="2157.22,-140.99 2160.72,-150.99 2164.22,-140.99 2157.22,-140.99"/>
</g>
<!-- ModifFormComponent -->
<g id="node14" class="node">
<title>ModifFormComponent</title>
<polygon fill="#ffffb3" stroke="black" points="2130.16,-122 1983.84,-122 1983.84,-86 2130.16,-86 2130.16,-122"/>
<text text-anchor="middle" x="2057" y="-99.8" font-family="Times,serif" font-size="14.00">ModifFormComponent</text>
</g>
<!-- ModifFormComponent&#45;&gt;AppModule -->
<g id="edge14" class="edge">
<title>ModifFormComponent&#45;&gt;AppModule</title>
<path fill="none" stroke="black" d="M2109.75,-122.11C2109.75,-122.11 2109.75,-140.99 2109.75,-140.99"/>
<polygon fill="black" stroke="black" points="2106.25,-140.99 2109.75,-150.99 2113.25,-140.99 2106.25,-140.99"/>
</g>
<!-- ModifierClientComponent -->
<g id="node15" class="node">
<title>ModifierClientComponent</title>
<polygon fill="#ffffb3" stroke="black" points="1965.82,-122 1800.18,-122 1800.18,-86 1965.82,-86 1965.82,-122"/>
<text text-anchor="middle" x="1883" y="-99.8" font-family="Times,serif" font-size="14.00">ModifierClientComponent</text>
</g>
<!-- ModifierClientComponent&#45;&gt;AppModule -->
<g id="edge15" class="edge">
<title>ModifierClientComponent&#45;&gt;AppModule</title>
<path fill="none" stroke="black" d="M1883,-122.05C1883,-136.37 1883,-154 1883,-154 1883,-154 2079.21,-154 2079.21,-154"/>
<polygon fill="black" stroke="black" points="2079.21,-157.5 2089.21,-154 2079.21,-150.5 2079.21,-157.5"/>
</g>
<!-- NavbarComponent -->
<g id="node16" class="node">
<title>NavbarComponent</title>
<polygon fill="#ffffb3" stroke="black" points="1782.03,-122 1659.97,-122 1659.97,-86 1782.03,-86 1782.03,-122"/>
<text text-anchor="middle" x="1721" y="-99.8" font-family="Times,serif" font-size="14.00">NavbarComponent</text>
</g>
<!-- NavbarComponent&#45;&gt;AppModule -->
<g id="edge16" class="edge">
<title>NavbarComponent&#45;&gt;AppModule</title>
<path fill="none" stroke="black" d="M1721,-122.24C1721,-137.57 1721,-157 1721,-157 1721,-157 2079.05,-157 2079.05,-157"/>
<polygon fill="black" stroke="black" points="2079.05,-160.5 2089.05,-157 2079.05,-153.5 2079.05,-160.5"/>
</g>
<!-- ReclamationsAdminComponent -->
<g id="node17" class="node">
<title>ReclamationsAdminComponent</title>
<polygon fill="#ffffb3" stroke="black" points="1642.42,-122 1445.58,-122 1445.58,-86 1642.42,-86 1642.42,-122"/>
<text text-anchor="middle" x="1544" y="-99.8" font-family="Times,serif" font-size="14.00">ReclamationsAdminComponent</text>
</g>
<!-- ReclamationsAdminComponent&#45;&gt;AppModule -->
<g id="edge17" class="edge">
<title>ReclamationsAdminComponent&#45;&gt;AppModule</title>
<path fill="none" stroke="black" d="M1544,-122.03C1544,-138.4 1544,-160 1544,-160 1544,-160 2079.25,-160 2079.25,-160"/>
<polygon fill="black" stroke="black" points="2079.26,-163.5 2089.25,-160 2079.25,-156.5 2079.26,-163.5"/>
</g>
<!-- ReclamationsClientComponent -->
<g id="node18" class="node">
<title>ReclamationsClientComponent</title>
<polygon fill="#ffffb3" stroke="black" points="1427.76,-122 1236.24,-122 1236.24,-86 1427.76,-86 1427.76,-122"/>
<text text-anchor="middle" x="1332" y="-99.8" font-family="Times,serif" font-size="14.00">ReclamationsClientComponent</text>
</g>
<!-- ReclamationsClientComponent&#45;&gt;AppModule -->
<g id="edge18" class="edge">
<title>ReclamationsClientComponent&#45;&gt;AppModule</title>
<path fill="none" stroke="black" d="M1332,-122.02C1332,-139.37 1332,-163 1332,-163 1332,-163 2079.17,-163 2079.17,-163"/>
<polygon fill="black" stroke="black" points="2079.17,-166.5 2089.17,-163 2079.17,-159.5 2079.17,-166.5"/>
</g>
<!-- RegisterComponent -->
<g id="node19" class="node">
<title>RegisterComponent</title>
<polygon fill="#ffffb3" stroke="black" points="1217.98,-122 1090.02,-122 1090.02,-86 1217.98,-86 1217.98,-122"/>
<text text-anchor="middle" x="1154" y="-99.8" font-family="Times,serif" font-size="14.00">RegisterComponent</text>
</g>
<!-- RegisterComponent&#45;&gt;AppModule -->
<g id="edge19" class="edge">
<title>RegisterComponent&#45;&gt;AppModule</title>
<path fill="none" stroke="black" d="M1154,-122.3C1154,-140.27 1154,-165 1154,-165 1154,-165 2079.33,-165 2079.33,-165"/>
<polygon fill="black" stroke="black" points="2079.33,-168.5 2089.33,-165 2079.33,-161.5 2079.33,-168.5"/>
</g>
<!-- SendMailComponent -->
<g id="node20" class="node">
<title>SendMailComponent</title>
<polygon fill="#ffffb3" stroke="black" points="1071.77,-122 936.23,-122 936.23,-86 1071.77,-86 1071.77,-122"/>
<text text-anchor="middle" x="1004" y="-99.8" font-family="Times,serif" font-size="14.00">SendMailComponent</text>
</g>
<!-- SendMailComponent&#45;&gt;AppModule -->
<g id="edge20" class="edge">
<title>SendMailComponent&#45;&gt;AppModule</title>
<path fill="none" stroke="black" d="M1004,-122.17C1004,-141.09 1004,-168 1004,-168 1004,-168 2079.22,-168 2079.22,-168"/>
<polygon fill="black" stroke="black" points="2079.22,-171.5 2089.22,-168 2079.22,-164.5 2079.22,-171.5"/>
</g>
<!-- SidebarComponent -->
<g id="node21" class="node">
<title>SidebarComponent</title>
<polygon fill="#ffffb3" stroke="black" points="918.1,-122 793.9,-122 793.9,-86 918.1,-86 918.1,-122"/>
<text text-anchor="middle" x="856" y="-99.8" font-family="Times,serif" font-size="14.00">SidebarComponent</text>
</g>
<!-- SidebarComponent&#45;&gt;AppModule -->
<g id="edge21" class="edge">
<title>SidebarComponent&#45;&gt;AppModule</title>
<path fill="none" stroke="black" d="M856,-122.31C856,-142.15 856,-171 856,-171 856,-171 2079.3,-171 2079.3,-171"/>
<polygon fill="black" stroke="black" points="2079.3,-174.5 2089.3,-171 2079.3,-167.5 2079.3,-174.5"/>
</g>
<!-- SuppClientComponent -->
<g id="node22" class="node">
<title>SuppClientComponent</title>
<polygon fill="#ffffb3" stroke="black" points="776.34,-122 631.66,-122 631.66,-86 776.34,-86 776.34,-122"/>
<text text-anchor="middle" x="704" y="-99.8" font-family="Times,serif" font-size="14.00">SuppClientComponent</text>
</g>
<!-- SuppClientComponent&#45;&gt;AppModule -->
<g id="edge22" class="edge">
<title>SuppClientComponent&#45;&gt;AppModule</title>
<path fill="none" stroke="black" d="M704,-122.03C704,-142.77 704,-174 704,-174 704,-174 2079.07,-174 2079.07,-174"/>
<polygon fill="black" stroke="black" points="2079.07,-177.5 2089.07,-174 2079.07,-170.5 2079.07,-177.5"/>
</g>
<!-- AppComponent  -->
<g id="node26" class="node">
<title>AppComponent </title>
<polygon fill="#80b1d3" stroke="black" points="2185.44,-252 2076.56,-252 2076.56,-216 2185.44,-216 2185.44,-252"/>
<text text-anchor="middle" x="2131" y="-229.8" font-family="Times,serif" font-size="14.00">AppComponent </text>
</g>
<!-- AppModule&#45;&gt;AppComponent  -->
<g id="edge25" class="edge">
<title>AppModule&#45;&gt;AppComponent </title>
<path fill="none" stroke="black" stroke-dasharray="1,5" d="M2131,-187.11C2131,-187.11 2131,-205.99 2131,-205.99"/>
<polygon fill="black" stroke="black" points="2127.5,-205.99 2131,-215.99 2134.5,-205.99 2127.5,-205.99"/>
</g>
<!-- AppMaterialModule -->
<g id="node24" class="node">
<title>AppMaterialModule</title>
<polygon fill="#8dd3c7" stroke="black" points="607.58,-122 604.58,-126 583.58,-126 580.58,-122 476.42,-122 476.42,-86 607.58,-86 607.58,-122"/>
<text text-anchor="middle" x="542" y="-99.8" font-family="Times,serif" font-size="14.00">AppMaterialModule</text>
</g>
<!-- AppMaterialModule&#45;&gt;AppModule -->
<g id="edge23" class="edge">
<title>AppMaterialModule&#45;&gt;AppModule</title>
<path fill="none" stroke="black" d="M542,-122.17C542,-143.5 542,-176 542,-176 542,-176 2079.31,-176 2079.31,-176"/>
<polygon fill="black" stroke="black" points="2079.31,-179.5 2089.31,-176 2079.31,-172.5 2079.31,-179.5"/>
</g>
<!-- AppRoutingModule -->
<g id="node25" class="node">
<title>AppRoutingModule</title>
<polygon fill="#8dd3c7" stroke="black" points="458.27,-122 455.27,-126 434.27,-126 431.27,-122 329.73,-122 329.73,-86 458.27,-86 458.27,-122"/>
<text text-anchor="middle" x="394" y="-99.8" font-family="Times,serif" font-size="14.00">AppRoutingModule</text>
</g>
<!-- AppRoutingModule&#45;&gt;AppModule -->
<g id="edge24" class="edge">
<title>AppRoutingModule&#45;&gt;AppModule</title>
<path fill="none" stroke="black" d="M394,-122.16C394,-144.35 394,-179 394,-179 394,-179 2078.92,-179 2078.92,-179"/>
<polygon fill="black" stroke="black" points="2078.92,-182.5 2088.92,-179 2078.92,-175.5 2078.92,-182.5"/>
</g>
<!-- AuthInterceptor -->
<g id="node27" class="node">
<title>AuthInterceptor</title>
<ellipse fill="#fdb462" stroke="black" cx="233" cy="-104" rx="72.91" ry="18"/>
<text text-anchor="middle" x="233" y="-99.8" font-family="Times,serif" font-size="14.00">AuthInterceptor</text>
</g>
<!-- AuthInterceptor&#45;&gt;AppModule -->
<g id="edge26" class="edge">
<title>AuthInterceptor&#45;&gt;AppModule</title>
<path fill="none" stroke="black" d="M233,-122.09C233,-145.13 233,-182 233,-182 233,-182 2079.15,-182 2079.15,-182"/>
<polygon fill="black" stroke="black" points="2079.15,-185.5 2089.15,-182 2079.15,-178.5 2079.15,-185.5"/>
</g>
<!-- AuthService -->
<g id="node28" class="node">
<title>AuthService</title>
<ellipse fill="#fdb462" stroke="black" cx="83" cy="-104" rx="59.11" ry="18"/>
<text text-anchor="middle" x="83" y="-99.8" font-family="Times,serif" font-size="14.00">AuthService</text>
</g>
<!-- AuthService&#45;&gt;AppModule -->
<g id="edge27" class="edge">
<title>AuthService&#45;&gt;AppModule</title>
<path fill="none" stroke="black" d="M83,-122.38C83,-146.28 83,-185 83,-185 83,-185 2079.16,-185 2079.16,-185"/>
<polygon fill="black" stroke="black" points="2079.16,-188.5 2089.16,-185 2079.16,-181.5 2079.16,-188.5"/>
</g>
</g>
</svg>
