<?xml version="1.0" encoding="UTF-8" standalone="no"?>
<!DOCTYPE svg PUBLIC "-//W3C//DTD SVG 1.1//EN"
 "http://www.w3.org/Graphics/SVG/1.1/DTD/svg11.dtd">
<!-- Generated by graphviz version 2.47.0 (20210316.0004)
 -->
<!-- Title: dependencies Pages: 1 -->
<svg width="4443pt" height="284pt"
 viewBox="0.00 0.00 4443.00 284.00" xmlns="http://www.w3.org/2000/svg" xmlns:xlink="http://www.w3.org/1999/xlink">
<g id="graph0" class="graph" transform="scale(1 1) rotate(0) translate(4 280)">
<title>dependencies</title>
<polygon fill="white" stroke="transparent" points="-4,4 -4,-280 4439,-280 4439,4 -4,4"/>
<text text-anchor="start" x="2196.51" y="-42.4" font-family="sans-serif" font-weight="bold" font-size="14.00">Legend</text>
<polygon fill="#ffffb3" stroke="transparent" points="1983.5,-10 1983.5,-30 2003.5,-30 2003.5,-10 1983.5,-10"/>
<text text-anchor="start" x="2007.13" y="-15.4" font-family="sans-serif" font-size="14.00"> &#160;Declarations</text>
<polygon fill="#8dd3c7" stroke="transparent" points="2096.5,-10 2096.5,-30 2116.5,-30 2116.5,-10 2096.5,-10"/>
<text text-anchor="start" x="2120.23" y="-15.4" font-family="sans-serif" font-size="14.00"> &#160;Module</text>
<polygon fill="#80b1d3" stroke="transparent" points="2182.5,-10 2182.5,-30 2202.5,-30 2202.5,-10 2182.5,-10"/>
<text text-anchor="start" x="2206.28" y="-15.4" font-family="sans-serif" font-size="14.00"> &#160;Bootstrap</text>
<polygon fill="#fdb462" stroke="transparent" points="2279.5,-10 2279.5,-30 2299.5,-30 2299.5,-10 2279.5,-10"/>
<text text-anchor="start" x="2303.17" y="-15.4" font-family="sans-serif" font-size="14.00"> &#160;Providers</text>
<polygon fill="#fb8072" stroke="transparent" points="2375.5,-10 2375.5,-30 2395.5,-30 2395.5,-10 2375.5,-10"/>
<text text-anchor="start" x="2399.23" y="-15.4" font-family="sans-serif" font-size="14.00"> &#160;Exports</text>
<g id="clust1" class="cluster">
<title>cluster_AppModule</title>
<polygon fill="none" stroke="black" stroke-dasharray="1,5" points="8,-70 8,-268 4427,-268 4427,-70 8,-70"/>
</g>
<g id="clust27" class="cluster">
<title>cluster_AppModule_bootstrap</title>
<polygon fill="none" stroke="black" points="2048,-208 2048,-260 2172,-260 2172,-208 2048,-208"/>
</g>
<g id="clust28" class="cluster">
<title>cluster_AppModule_providers</title>
<polygon fill="none" stroke="black" points="4121,-78 4121,-130 4419,-130 4419,-78 4121,-78"/>
</g>
<g id="clust2" class="cluster">
<title>cluster_AppModule_declarations</title>
<polygon fill="none" stroke="black" points="318,-78 318,-130 4113,-130 4113,-78 318,-78"/>
</g>
<g id="clust25" class="cluster">
<title>cluster_AppModule_imports</title>
<polygon fill="none" stroke="black" points="16,-78 16,-130 310,-130 310,-78 16,-78"/>
</g>
<!-- AffichEtablissementComponent -->
<g id="node1" class="node">
<title>AffichEtablissementComponent</title>
<polygon fill="#ffffb3" stroke="black" points="4105.4,-122 3908.6,-122 3908.6,-86 4105.4,-86 4105.4,-122"/>
<text text-anchor="middle" x="4007" y="-99.8" font-family="Times,serif" font-size="14.00">AffichEtablissementComponent</text>
</g>
<!-- AppModule -->
<g id="node23" class="node">
<title>AppModule</title>
<polygon fill="#8dd3c7" stroke="black" points="2151.66,-187 2148.66,-191 2127.66,-191 2124.66,-187 2068.34,-187 2068.34,-151 2151.66,-151 2151.66,-187"/>
<text text-anchor="middle" x="2110" y="-164.8" font-family="Times,serif" font-size="14.00">AppModule</text>
</g>
<!-- AffichEtablissementComponent&#45;&gt;AppModule -->
<g id="edge1" class="edge">
<title>AffichEtablissementComponent&#45;&gt;AppModule</title>
<path fill="none" stroke="black" d="M4007,-122.16C4007,-144.35 4007,-179 4007,-179 4007,-179 2161.83,-179 2161.83,-179"/>
<polygon fill="black" stroke="black" points="2161.83,-175.5 2151.83,-179 2161.83,-182.5 2161.83,-175.5"/>
</g>
<!-- AffichMontantAlimenteComponent -->
<g id="node2" class="node">
<title>AffichMontantAlimenteComponent</title>
<polygon fill="#ffffb3" stroke="black" points="3890.9,-122 3673.1,-122 3673.1,-86 3890.9,-86 3890.9,-122"/>
<text text-anchor="middle" x="3782" y="-99.8" font-family="Times,serif" font-size="14.00">AffichMontantAlimenteComponent</text>
</g>
<!-- AffichMontantAlimenteComponent&#45;&gt;AppModule -->
<g id="edge2" class="edge">
<title>AffichMontantAlimenteComponent&#45;&gt;AppModule</title>
<path fill="none" stroke="black" d="M3782,-122.17C3782,-143.5 3782,-176 3782,-176 3782,-176 2161.75,-176 2161.75,-176"/>
<polygon fill="black" stroke="black" points="2161.75,-172.5 2151.75,-176 2161.75,-179.5 2161.75,-172.5"/>
</g>
<!-- AffichMontantCollecteComponent -->
<g id="node3" class="node">
<title>AffichMontantCollecteComponent</title>
<polygon fill="#ffffb3" stroke="black" points="3654.96,-122 3443.04,-122 3443.04,-86 3654.96,-86 3654.96,-122"/>
<text text-anchor="middle" x="3549" y="-99.8" font-family="Times,serif" font-size="14.00">AffichMontantCollecteComponent</text>
</g>
<!-- AffichMontantCollecteComponent&#45;&gt;AppModule -->
<g id="edge3" class="edge">
<title>AffichMontantCollecteComponent&#45;&gt;AppModule</title>
<path fill="none" stroke="black" d="M3549,-122.03C3549,-142.77 3549,-174 3549,-174 3549,-174 2161.9,-174 2161.9,-174"/>
<polygon fill="black" stroke="black" points="2161.9,-170.5 2151.9,-174 2161.9,-177.5 2161.9,-170.5"/>
</g>
<!-- AffichPassagesComponent -->
<g id="node4" class="node">
<title>AffichPassagesComponent</title>
<polygon fill="#ffffb3" stroke="black" points="3424.63,-122 3257.37,-122 3257.37,-86 3424.63,-86 3424.63,-122"/>
<text text-anchor="middle" x="3341" y="-99.8" font-family="Times,serif" font-size="14.00">AffichPassagesComponent</text>
</g>
<!-- AffichPassagesComponent&#45;&gt;AppModule -->
<g id="edge4" class="edge">
<title>AffichPassagesComponent&#45;&gt;AppModule</title>
<path fill="none" stroke="black" d="M3341,-122.31C3341,-142.15 3341,-171 3341,-171 3341,-171 2161.66,-171 2161.66,-171"/>
<polygon fill="black" stroke="black" points="2161.66,-167.5 2151.66,-171 2161.66,-174.5 2161.66,-167.5"/>
</g>
<!-- AppComponent -->
<g id="node5" class="node">
<title>AppComponent</title>
<polygon fill="#ffffb3" stroke="black" points="3238.94,-122 3133.06,-122 3133.06,-86 3238.94,-86 3238.94,-122"/>
<text text-anchor="middle" x="3186" y="-99.8" font-family="Times,serif" font-size="14.00">AppComponent</text>
</g>
<!-- AppComponent&#45;&gt;AppModule -->
<g id="edge5" class="edge">
<title>AppComponent&#45;&gt;AppModule</title>
<path fill="none" stroke="black" d="M3186,-122.17C3186,-141.09 3186,-168 3186,-168 3186,-168 2161.85,-168 2161.85,-168"/>
<polygon fill="black" stroke="black" points="2161.85,-164.5 2151.85,-168 2161.85,-171.5 2161.85,-164.5"/>
</g>
<!-- CommandesClientComponent -->
<g id="node6" class="node">
<title>CommandesClientComponent</title>
<polygon fill="#ffffb3" stroke="black" points="3115.55,-122 2930.45,-122 2930.45,-86 3115.55,-86 3115.55,-122"/>
<text text-anchor="middle" x="3023" y="-99.8" font-family="Times,serif" font-size="14.00">CommandesClientComponent</text>
</g>
<!-- CommandesClientComponent&#45;&gt;AppModule -->
<g id="edge6" class="edge">
<title>CommandesClientComponent&#45;&gt;AppModule</title>
<path fill="none" stroke="black" d="M3023,-122.3C3023,-140.27 3023,-165 3023,-165 3023,-165 2161.9,-165 2161.9,-165"/>
<polygon fill="black" stroke="black" points="2161.9,-161.5 2151.9,-165 2161.9,-168.5 2161.9,-161.5"/>
</g>
<!-- ConsultationComponent -->
<g id="node7" class="node">
<title>ConsultationComponent</title>
<polygon fill="#ffffb3" stroke="black" points="2912.39,-122 2759.61,-122 2759.61,-86 2912.39,-86 2912.39,-122"/>
<text text-anchor="middle" x="2836" y="-99.8" font-family="Times,serif" font-size="14.00">ConsultationComponent</text>
</g>
<!-- ConsultationComponent&#45;&gt;AppModule -->
<g id="edge7" class="edge">
<title>ConsultationComponent&#45;&gt;AppModule</title>
<path fill="none" stroke="black" d="M2836,-122.02C2836,-139.37 2836,-163 2836,-163 2836,-163 2161.91,-163 2161.91,-163"/>
<polygon fill="black" stroke="black" points="2161.91,-159.5 2151.91,-163 2161.91,-166.5 2161.91,-159.5"/>
</g>
<!-- DesactiverCompteComponent -->
<g id="node8" class="node">
<title>DesactiverCompteComponent</title>
<polygon fill="#ffffb3" stroke="black" points="2741.52,-122 2556.48,-122 2556.48,-86 2741.52,-86 2741.52,-122"/>
<text text-anchor="middle" x="2649" y="-99.8" font-family="Times,serif" font-size="14.00">DesactiverCompteComponent</text>
</g>
<!-- DesactiverCompteComponent&#45;&gt;AppModule -->
<g id="edge8" class="edge">
<title>DesactiverCompteComponent&#45;&gt;AppModule</title>
<path fill="none" stroke="black" d="M2649,-122.03C2649,-138.4 2649,-160 2649,-160 2649,-160 2161.85,-160 2161.85,-160"/>
<polygon fill="black" stroke="black" points="2161.85,-156.5 2151.85,-160 2161.85,-163.5 2161.85,-156.5"/>
</g>
<!-- FooterComponent -->
<g id="node9" class="node">
<title>FooterComponent</title>
<polygon fill="#ffffb3" stroke="black" points="2537.88,-122 2420.12,-122 2420.12,-86 2537.88,-86 2537.88,-122"/>
<text text-anchor="middle" x="2479" y="-99.8" font-family="Times,serif" font-size="14.00">FooterComponent</text>
</g>
<!-- FooterComponent&#45;&gt;AppModule -->
<g id="edge9" class="edge">
<title>FooterComponent&#45;&gt;AppModule</title>
<path fill="none" stroke="black" d="M2479,-122.24C2479,-137.57 2479,-157 2479,-157 2479,-157 2161.97,-157 2161.97,-157"/>
<polygon fill="black" stroke="black" points="2161.97,-153.5 2151.97,-157 2161.97,-160.5 2161.97,-153.5"/>
</g>
<!-- FormsComponent -->
<g id="node10" class="node">
<title>FormsComponent</title>
<polygon fill="#ffffb3" stroke="black" points="2402.61,-122 2285.39,-122 2285.39,-86 2402.61,-86 2402.61,-122"/>
<text text-anchor="middle" x="2344" y="-99.8" font-family="Times,serif" font-size="14.00">FormsComponent</text>
</g>
<!-- FormsComponent&#45;&gt;AppModule -->
<g id="edge10" class="edge">
<title>FormsComponent&#45;&gt;AppModule</title>
<path fill="none" stroke="black" d="M2344,-122.05C2344,-136.37 2344,-154 2344,-154 2344,-154 2161.83,-154 2161.83,-154"/>
<polygon fill="black" stroke="black" points="2161.83,-150.5 2151.83,-154 2161.83,-157.5 2161.83,-150.5"/>
</g>
<!-- GestionClientComponent -->
<g id="node11" class="node">
<title>GestionClientComponent</title>
<polygon fill="#ffffb3" stroke="black" points="2267.6,-122 2108.4,-122 2108.4,-86 2267.6,-86 2267.6,-122"/>
<text text-anchor="middle" x="2188" y="-99.8" font-family="Times,serif" font-size="14.00">GestionClientComponent</text>
</g>
<!-- GestionClientComponent&#45;&gt;AppModule -->
<g id="edge11" class="edge">
<title>GestionClientComponent&#45;&gt;AppModule</title>
<path fill="none" stroke="black" d="M2130.14,-122.11C2130.14,-122.11 2130.14,-140.99 2130.14,-140.99"/>
<polygon fill="black" stroke="black" points="2126.64,-140.99 2130.14,-150.99 2133.64,-140.99 2126.64,-140.99"/>
</g>
<!-- HomeComponent -->
<g id="node12" class="node">
<title>HomeComponent</title>
<polygon fill="#ffffb3" stroke="black" points="2090.55,-122 1975.45,-122 1975.45,-86 2090.55,-86 2090.55,-122"/>
<text text-anchor="middle" x="2033" y="-99.8" font-family="Times,serif" font-size="14.00">HomeComponent</text>
</g>
<!-- HomeComponent&#45;&gt;AppModule -->
<g id="edge12" class="edge">
<title>HomeComponent&#45;&gt;AppModule</title>
<path fill="none" stroke="black" d="M2079.47,-122.11C2079.47,-122.11 2079.47,-140.99 2079.47,-140.99"/>
<polygon fill="black" stroke="black" points="2075.97,-140.99 2079.47,-150.99 2082.97,-140.99 2075.97,-140.99"/>
</g>
<!-- LoginComponent -->
<g id="node13" class="node">
<title>LoginComponent</title>
<polygon fill="#ffffb3" stroke="black" points="1957.28,-122 1842.72,-122 1842.72,-86 1957.28,-86 1957.28,-122"/>
<text text-anchor="middle" x="1900" y="-99.8" font-family="Times,serif" font-size="14.00">LoginComponent</text>
</g>
<!-- LoginComponent&#45;&gt;AppModule -->
<g id="edge13" class="edge">
<title>LoginComponent&#45;&gt;AppModule</title>
<path fill="none" stroke="black" d="M1900,-122.05C1900,-136.37 1900,-154 1900,-154 1900,-154 2058.26,-154 2058.26,-154"/>
<polygon fill="black" stroke="black" points="2058.26,-157.5 2068.26,-154 2058.26,-150.5 2058.26,-157.5"/>
</g>
<!-- ModifFormComponent -->
<g id="node14" class="node">
<title>ModifFormComponent</title>
<polygon fill="#ffffb3" stroke="black" points="1824.16,-122 1677.84,-122 1677.84,-86 1824.16,-86 1824.16,-122"/>
<text text-anchor="middle" x="1751" y="-99.8" font-family="Times,serif" font-size="14.00">ModifFormComponent</text>
</g>
<!-- ModifFormComponent&#45;&gt;AppModule -->
<g id="edge14" class="edge">
<title>ModifFormComponent&#45;&gt;AppModule</title>
<path fill="none" stroke="black" d="M1751,-122.24C1751,-137.57 1751,-157 1751,-157 1751,-157 2058.12,-157 2058.12,-157"/>
<polygon fill="black" stroke="black" points="2058.12,-160.5 2068.12,-157 2058.12,-153.5 2058.12,-160.5"/>
</g>
<!-- ModifierClientComponent -->
<g id="node15" class="node">
<title>ModifierClientComponent</title>
<polygon fill="#ffffb3" stroke="black" points="1659.82,-122 1494.18,-122 1494.18,-86 1659.82,-86 1659.82,-122"/>
<text text-anchor="middle" x="1577" y="-99.8" font-family="Times,serif" font-size="14.00">ModifierClientComponent</text>
</g>
<!-- ModifierClientComponent&#45;&gt;AppModule -->
<g id="edge15" class="edge">
<title>ModifierClientComponent&#45;&gt;AppModule</title>
<path fill="none" stroke="black" d="M1577,-122.03C1577,-138.4 1577,-160 1577,-160 1577,-160 2058.18,-160 2058.18,-160"/>
<polygon fill="black" stroke="black" points="2058.18,-163.5 2068.18,-160 2058.18,-156.5 2058.18,-163.5"/>
</g>
<!-- NavbarComponent -->
<g id="node16" class="node">
<title>NavbarComponent</title>
<polygon fill="#ffffb3" stroke="black" points="1476.03,-122 1353.97,-122 1353.97,-86 1476.03,-86 1476.03,-122"/>
<text text-anchor="middle" x="1415" y="-99.8" font-family="Times,serif" font-size="14.00">NavbarComponent</text>
</g>
<!-- NavbarComponent&#45;&gt;AppModule -->
<g id="edge16" class="edge">
<title>NavbarComponent&#45;&gt;AppModule</title>
<path fill="none" stroke="black" d="M1415,-122.02C1415,-139.37 1415,-163 1415,-163 1415,-163 2058.09,-163 2058.09,-163"/>
<polygon fill="black" stroke="black" points="2058.09,-166.5 2068.09,-163 2058.09,-159.5 2058.09,-166.5"/>
</g>
<!-- ReclamationsAdminComponent -->
<g id="node17" class="node">
<title>ReclamationsAdminComponent</title>
<polygon fill="#ffffb3" stroke="black" points="1336.42,-122 1139.58,-122 1139.58,-86 1336.42,-86 1336.42,-122"/>
<text text-anchor="middle" x="1238" y="-99.8" font-family="Times,serif" font-size="14.00">ReclamationsAdminComponent</text>
</g>
<!-- ReclamationsAdminComponent&#45;&gt;AppModule -->
<g id="edge17" class="edge">
<title>ReclamationsAdminComponent&#45;&gt;AppModule</title>
<path fill="none" stroke="black" d="M1238,-122.3C1238,-140.27 1238,-165 1238,-165 1238,-165 2058.24,-165 2058.24,-165"/>
<polygon fill="black" stroke="black" points="2058.24,-168.5 2068.24,-165 2058.24,-161.5 2058.24,-168.5"/>
</g>
<!-- ReclamationsClientComponent -->
<g id="node18" class="node">
<title>ReclamationsClientComponent</title>
<polygon fill="#ffffb3" stroke="black" points="1121.76,-122 930.24,-122 930.24,-86 1121.76,-86 1121.76,-122"/>
<text text-anchor="middle" x="1026" y="-99.8" font-family="Times,serif" font-size="14.00">ReclamationsClientComponent</text>
</g>
<!-- ReclamationsClientComponent&#45;&gt;AppModule -->
<g id="edge18" class="edge">
<title>ReclamationsClientComponent&#45;&gt;AppModule</title>
<path fill="none" stroke="black" d="M1026,-122.17C1026,-141.09 1026,-168 1026,-168 1026,-168 2058.17,-168 2058.17,-168"/>
<polygon fill="black" stroke="black" points="2058.17,-171.5 2068.17,-168 2058.17,-164.5 2058.17,-171.5"/>
</g>
<!-- RegisterComponent -->
<g id="node19" class="node">
<title>RegisterComponent</title>
<polygon fill="#ffffb3" stroke="black" points="911.98,-122 784.02,-122 784.02,-86 911.98,-86 911.98,-122"/>
<text text-anchor="middle" x="848" y="-99.8" font-family="Times,serif" font-size="14.00">RegisterComponent</text>
</g>
<!-- RegisterComponent&#45;&gt;AppModule -->
<g id="edge19" class="edge">
<title>RegisterComponent&#45;&gt;AppModule</title>
<path fill="none" stroke="black" d="M848,-122.31C848,-142.15 848,-171 848,-171 848,-171 2058.01,-171 2058.01,-171"/>
<polygon fill="black" stroke="black" points="2058.01,-174.5 2068.01,-171 2058.01,-167.5 2058.01,-174.5"/>
</g>
<!-- SendMailComponent -->
<g id="node20" class="node">
<title>SendMailComponent</title>
<polygon fill="#ffffb3" stroke="black" points="765.77,-122 630.23,-122 630.23,-86 765.77,-86 765.77,-122"/>
<text text-anchor="middle" x="698" y="-99.8" font-family="Times,serif" font-size="14.00">SendMailComponent</text>
</g>
<!-- SendMailComponent&#45;&gt;AppModule -->
<g id="edge20" class="edge">
<title>SendMailComponent&#45;&gt;AppModule</title>
<path fill="none" stroke="black" d="M698,-122.03C698,-142.77 698,-174 698,-174 698,-174 2058.12,-174 2058.12,-174"/>
<polygon fill="black" stroke="black" points="2058.12,-177.5 2068.12,-174 2058.12,-170.5 2058.12,-177.5"/>
</g>
<!-- SidebarComponent -->
<g id="node21" class="node">
<title>SidebarComponent</title>
<polygon fill="#ffffb3" stroke="black" points="612.1,-122 487.9,-122 487.9,-86 612.1,-86 612.1,-122"/>
<text text-anchor="middle" x="550" y="-99.8" font-family="Times,serif" font-size="14.00">SidebarComponent</text>
</g>
<!-- SidebarComponent&#45;&gt;AppModule -->
<g id="edge21" class="edge">
<title>SidebarComponent&#45;&gt;AppModule</title>
<path fill="none" stroke="black" d="M550,-122.17C550,-143.5 550,-176 550,-176 550,-176 2058.27,-176 2058.27,-176"/>
<polygon fill="black" stroke="black" points="2058.27,-179.5 2068.27,-176 2058.27,-172.5 2058.27,-179.5"/>
</g>
<!-- SuppClientComponent -->
<g id="node22" class="node">
<title>SuppClientComponent</title>
<polygon fill="#ffffb3" stroke="black" points="470.34,-122 325.66,-122 325.66,-86 470.34,-86 470.34,-122"/>
<text text-anchor="middle" x="398" y="-99.8" font-family="Times,serif" font-size="14.00">SuppClientComponent</text>
</g>
<!-- SuppClientComponent&#45;&gt;AppModule -->
<g id="edge22" class="edge">
<title>SuppClientComponent&#45;&gt;AppModule</title>
<path fill="none" stroke="black" d="M398,-122.16C398,-144.35 398,-179 398,-179 398,-179 2058.11,-179 2058.11,-179"/>
<polygon fill="black" stroke="black" points="2058.11,-182.5 2068.11,-179 2058.11,-175.5 2058.11,-182.5"/>
</g>
<!-- AppComponent  -->
<g id="node26" class="node">
<title>AppComponent </title>
<polygon fill="#80b1d3" stroke="black" points="2164.44,-252 2055.56,-252 2055.56,-216 2164.44,-216 2164.44,-252"/>
<text text-anchor="middle" x="2110" y="-229.8" font-family="Times,serif" font-size="14.00">AppComponent </text>
</g>
<!-- AppModule&#45;&gt;AppComponent  -->
<g id="edge25" class="edge">
<title>AppModule&#45;&gt;AppComponent </title>
<path fill="none" stroke="black" stroke-dasharray="1,5" d="M2110,-187.11C2110,-187.11 2110,-205.99 2110,-205.99"/>
<polygon fill="black" stroke="black" points="2106.5,-205.99 2110,-215.99 2113.5,-205.99 2106.5,-205.99"/>
</g>
<!-- AppMaterialModule -->
<g id="node24" class="node">
<title>AppMaterialModule</title>
<polygon fill="#8dd3c7" stroke="black" points="301.58,-122 298.58,-126 277.58,-126 274.58,-122 170.42,-122 170.42,-86 301.58,-86 301.58,-122"/>
<text text-anchor="middle" x="236" y="-99.8" font-family="Times,serif" font-size="14.00">AppMaterialModule</text>
</g>
<!-- AppMaterialModule&#45;&gt;AppModule -->
<g id="edge23" class="edge">
<title>AppMaterialModule&#45;&gt;AppModule</title>
<path fill="none" stroke="black" d="M236,-122.09C236,-145.13 236,-182 236,-182 236,-182 2058.23,-182 2058.23,-182"/>
<polygon fill="black" stroke="black" points="2058.23,-185.5 2068.23,-182 2058.23,-178.5 2058.23,-185.5"/>
</g>
<!-- AppRoutingModule -->
<g id="node25" class="node">
<title>AppRoutingModule</title>
<polygon fill="#8dd3c7" stroke="black" points="152.27,-122 149.27,-126 128.27,-126 125.27,-122 23.73,-122 23.73,-86 152.27,-86 152.27,-122"/>
<text text-anchor="middle" x="88" y="-99.8" font-family="Times,serif" font-size="14.00">AppRoutingModule</text>
</g>
<!-- AppRoutingModule&#45;&gt;AppModule -->
<g id="edge24" class="edge">
<title>AppRoutingModule&#45;&gt;AppModule</title>
<path fill="none" stroke="black" d="M88,-122.38C88,-146.28 88,-185 88,-185 88,-185 2058.23,-185 2058.23,-185"/>
<polygon fill="black" stroke="black" points="2058.23,-188.5 2068.23,-185 2058.23,-181.5 2058.23,-188.5"/>
</g>
<!-- AuthInterceptor -->
<g id="node27" class="node">
<title>AuthInterceptor</title>
<ellipse fill="#fdb462" stroke="black" cx="4338" cy="-104" rx="72.91" ry="18"/>
<text text-anchor="middle" x="4338" y="-99.8" font-family="Times,serif" font-size="14.00">AuthInterceptor</text>
</g>
<!-- AuthInterceptor&#45;&gt;AppModule -->
<g id="edge26" class="edge">
<title>AuthInterceptor&#45;&gt;AppModule</title>
<path fill="none" stroke="black" d="M4338,-122.38C4338,-146.28 4338,-185 4338,-185 4338,-185 2162.03,-185 2162.03,-185"/>
<polygon fill="black" stroke="black" points="2162.03,-181.5 2152.03,-185 2162.03,-188.5 2162.03,-181.5"/>
</g>
<!-- AuthService -->
<g id="node28" class="node">
<title>AuthService</title>
<ellipse fill="#fdb462" stroke="black" cx="4188" cy="-104" rx="59.11" ry="18"/>
<text text-anchor="middle" x="4188" y="-99.8" font-family="Times,serif" font-size="14.00">AuthService</text>
</g>
<!-- AuthService&#45;&gt;AppModule -->
<g id="edge27" class="edge">
<title>AuthService&#45;&gt;AppModule</title>
<path fill="none" stroke="black" d="M4188,-122.09C4188,-145.13 4188,-182 4188,-182 4188,-182 2161.98,-182 2161.98,-182"/>
<polygon fill="black" stroke="black" points="2161.98,-178.5 2151.98,-182 2161.98,-185.5 2161.98,-178.5"/>
</g>
</g>
</svg>
